inDegrees=yes
name=ik_lifting_orientations
DataType=double
version=3
OpenSimVersion=4.5-2024-01-10-34fd6af
endheader
time	pelvis_tilt	pelvis_list	pelvis_rotation	pelvis_tx	pelvis_ty	pelvis_tz	hip_flexion_r	hip_adduction_r	hip_rotation_r	knee_angle_r	knee_angle_r_beta	ankle_angle_r	subtalar_angle_r	mtp_angle_r	hip_flexion_l	hip_adduction_l	hip_rotation_l	knee_angle_l	knee_angle_l_beta	ankle_angle_l	subtalar_angle_l	mtp_angle_l	lumbar_extension	lumbar_bending	lumbar_rotation	arm_flex_r	arm_add_r	arm_rot_r	elbow_flex_r	pro_sup_r	wrist_flex_r	wrist_dev_r	arm_flex_l	arm_add_l	arm_rot_l	elbow_flex_l	pro_sup_l	wrist_flex_l	wrist_dev_l
0.52	5.581758506237934	28.27757824908106	-107.5843828026295	0	0.9399999998679526	0	45.50892698514033	-13.06422264797376	0	61.14466012157257	1.067175639134318	-6.562251405592754	0	0	45.50892698514033	-13.06422264797376	0	61.14466012157257	1.067175639134318	-6.562251405592754	0	0	46.71410039955366	7.457711279536738	9.129767371657207	-20.18920451950322	-3.9739219697522	3.467873834548421	0.04942165001703291	1.377123859636485	0	0	0	-9.403513014095926	0	88.67012550815869	1.377123859636485	0	0
0.53	5.489978717781665	28.539274485621	-107.5607690223541	0	0.9399999998679526	0	45.50882342132309	-13.06205398159781	0	61.14447569600726	1.067172420300978	-6.560817326384951	0	0	45.50882342132309	-13.06205398159781	0	61.14447569600726	1.067172420300978	-6.560817326384951	0	0	47.16633362251527	7.676782797725453	9.312449534273892	-20.38435643269295	-3.947690506050302	2.910056098531417	0.04894934624972969	1.376928204130515	0	0	0	-9.40410118177966	0	88.6703144233915	1.376928204130515	0	0
0.54	5.497459947724095	28.86618045178666	-107.5343949295565	0	0.9399999998679526	0	45.50867333462968	-13.05889259395755	0	61.14420979628974	1.067167779475427	-6.55872483282164	0	0	45.50867333462968	-13.05889259395755	0	61.14420979628974	1.067167779475427	-6.55872483282164	0	0	47.67689218134059	7.829491862291363	9.503123139147023	-20.53518425733319	-3.996003656465333	2.279528809652296	0.04860833137496075	1.376645204032352	0	0	0	-9.404950525444793	0	88.67058767418177	1.376645204032352	0	0
0.55	5.453892553896631	29.05740925318907	-107.4655536191403	0	0.9399999998679526	0	45.50849883011337	-13.05521822856091	0	61.1439007491696	1.067162385585637	-6.556293453797518	0	0	45.50849883011337	-13.05521822856091	0	61.1439007491696	1.067162385585637	-6.556293453797518	0	0	47.97224400814711	7.966953149687053	9.797310032784431	-20.66977421937042	-3.963928190953613	1.652187576784709	0.04878301188961701	1.376316183442866	0	0	0	-9.405937904260691	0	88.67090536006397	1.376316183442866	0	0
0.5600000000000001	5.343507378847625	29.26931662123776	-107.2712254401842	0	0.9399999998679526	0	45.50829962654496	-13.05102666738129	0	61.14354806293133	1.067156230049553	-6.553520888999136	0	0	45.50829962654496	-13.05102666738129	0	61.14354806293133	1.067156230049553	-6.553520888999136	0	0	48.05908694869773	8.117788419889557	10.31563812947934	-20.60639374650231	-3.871033570474174	0.7375520365105804	0.04892054132104078	1.375940601254635	0	0	0	-9.407064950176508	0	88.67126800350522	1.375940601254635	0	0
0.57	5.182887771924085	29.55588627342522	-107.1964731932744	0	0.9399999998679526	0	45.50809272586866	-13.04666661516971	0	61.14318243665473	1.067149848667194	-6.550636679495317	0	0	45.50809272586866	-13.04666661516971	0	61.14318243665473	1.067149848667194	-6.550636679495317	0	0	48.33475288457637	8.460521683995246	10.86618958171653	-20.65600914906719	-3.74122354862056	0.04772683341557711	0.04884915823754984	1.375550756263172	0	0	0	-9.408234136487197	0	88.67164441838106	1.375550756263172	0	0
0.58	5.062571689240919	29.81256817411601	-107.171158654485	0	0.9399999998679526	0	45.50799767454367	-13.04466938232146	0	61.14301417561354	1.067146911958023	-6.54931643708906	0	0	45.50799767454367	-13.04466938232146	0	61.14301417561354	1.067146911958023	-6.54931643708906	0	0	48.58976220754251	8.679284586796868	10.97779008776531	-20.7347116774206	-3.71557659942123	-0.02263569758007595	0.04769837175883142	1.375371527720135	0	0	0	-9.408771979429471	0	88.67181747253116	1.375371527720135	0	0
0.59	4.959887884623255	29.96471076548463	-107.0314813869104	0	0.9399999998679526	0	45.50789009098963	-13.04240463112762	0	61.14282407424665	1.067143594063258	-6.547818996223073	0	0	45.50789009098963	-13.04240463112762	0	61.14282407424665	1.067143594063258	-6.547818996223073	0	0	48.72602117351924	8.785007004636288	11.05718294700487	-20.80206588041119	-3.676081019845558	-0.2238702856638344	0.04805622977838766	1.375168801592822	0	0	0	-9.409379992644322	0	88.6720132147682	1.375168801592822	0	0
0.6	4.93169838503436	30.03159092935901	-106.9009898768429	0	0.9399999998679526	0	45.50781144705282	-13.04074970790496	0	61.1426851309789	1.067141169045762	-6.546724994727093	0	0	45.50781144705282	-13.04074970790496	0	61.1426851309789	1.067141169045762	-6.546724994727093	0	0	48.73352559013694	8.775891814591144	11.1738027694652	-20.84249161254258	-3.668401029287333	-0.3541938139500609	0.04786483157249204	1.37502060973108	0	0	0	-9.409824433767181	0	88.67215630143843	1.37502060973108	0	0
0.61	4.878626595887968	30.224486163045	-106.7697538262944	0	0.9399999998679526	0	45.50772782942895	-13.03899446296105	0	61.14253714222575	1.067138586154764	-6.545565284756621	0	0	45.50772782942895	-13.03899446296105	0	61.14253714222575	1.067138586154764	-6.545565284756621	0	0	48.83601624773005	8.818010823498911	11.27932848820778	-20.77868547530561	-3.639072959349442	-0.5119119457077139	0.04763050233921474	1.374862934661748	0	0	0	-9.410297592245884	0	88.67230854462933	1.374862934661748	0	0
0.62	4.806981256895879	30.47761479659922	-106.7724979309969	0	0.9399999998679526	0	45.50764345131225	-13.03722815893463	0	61.14238751437635	1.067135974656139	-6.544398955186514	0	0	45.50764345131225	-13.03722815893463	0	61.14238751437635	1.067135974656139	-6.544398955186514	0	0	49.10846787681491	8.968848569258785	11.2707149978714	-20.79077605294836	-3.55149486541224	-0.4811562315033973	0.04693212063272258	1.374703699733674	0	0	0	-9.410775744398524	0	88.67246229395154	1.374703699733674	0	0
0.63	4.733297867233459	30.68148887517196	-106.7859698302054	0	0.9399999998679526	0	45.5075056313651	-13.03432901175391	0	61.14214414972123	1.067131727141624	-6.542483051631082	0	0	45.5075056313651	-13.03432901175391	0	61.14214414972123	1.067131727141624	-6.542483051631082	0	0	49.31890652244649	9.070403789071115	10.9558568544233	-20.88707667466289	-3.424518744752416	-0.1001207268435329	0.04511951520227102	1.374444024454625	0	0	0	-9.411554451563394	0	88.67271302344832	1.374444024454625	0	0
0.64	4.740024939213999	30.80234665529041	-106.7798198452432	0	0.9399999998679526	0	45.50734040956634	-13.03085443881185	0	61.14185252799727	1.067126637382371	-6.54018746734815	0	0	45.50734040956634	-13.03085443881185	0	61.14185252799727	1.067126637382371	-6.54018746734815	0	0	49.39904238967829	8.980220685689734	10.51192831001072	-20.80247366357212	-3.381177720602378	0.358474061972019	0.04601299012906904	1.374132749139354	0	0	0	-9.41248779295246	0	88.67301357536465	1.374132749139354	0	0
0.65	4.8710415358209	30.80346899664072	-106.8075632192664	0	0.9399999998679526	0	45.50721937161471	-13.02831680843697	0	61.14163847319064	1.067122901421215	-6.538512096651188	0	0	45.50721937161471	-13.02831680843697	0	61.14163847319064	1.067122901421215	-6.538512096651188	0	0	49.26845464049012	8.771727103733653	10.24374447367325	-20.53363736307557	-3.369979800968865	0.9065987794773582	0.04781063044825125	1.373904529927087	0	0	0	-9.413172549193234	0	88.67323393246519	1.373904529927087	0	0
0.66	4.975653891699737	30.71678279295869	-106.8301927331948	0	0.9399999998679526	0	45.5070718036138	-13.02522984548961	0	61.14137712924281	1.067118340108846	-6.536475115641201	0	0	45.5070718036138	-13.02522984548961	0	61.14137712924281	1.067118340108846	-6.536475115641201	0	0	48.91192544911587	8.51325628167071	9.930500714000461	-20.04831225563061	-3.293348934486742	1.625702798996306	0.04961210150822978	1.373626121279298	0	0	0	-9.41400830559968	0	88.67350274999686	1.373626121279298	0	0
0.67	5.033669066569471	30.52605574370622	-106.7738958939072	0	0.9399999998679526	0	45.50694430007537	-13.02255426987519	0	61.14115197700716	1.067114410461015	-6.534708807083094	0	0	45.50694430007537	-13.02255426987519	0	61.14115197700716	1.067114410461015	-6.534708807083094	0	0	48.67722345708736	8.367612154349866	9.886340743005027	-19.81657797524559	-3.183128154516317	2.096487881565847	0.0539831950076884	1.373385824393425	0	0	0	-9.414728995264309	0	88.67373476868994	1.373385824393425	0	0
0.68	5.013156027454453	30.39303872592354	-106.7080909360905	0	0.9399999998679526	0	45.50681716951864	-13.01988812786564	0	61.14092748336775	1.067110492307858	-6.532949180786759	0	0	45.50681716951864	-13.01988812786564	0	61.14092748336775	1.067110492307858	-6.532949180786759	0	0	48.50179356469516	8.274362481526255	9.768868717569612	-19.63928799369289	-3.051199219854074	2.688770329445908	0.06169405652842804	1.373146216752889	0	0	0	-9.415447637566785	0	88.67396612188348	1.373146216752889	0	0
0.6899999999999999	5.058191138053976	30.38618872000401	-106.7195064495539	0	0.9399999998679526	0	45.50670083810836	-13.01745213283815	0	61.14072190508532	1.067106904289959	-6.531342118759384	0	0	45.50670083810836	-13.01745213283815	0	61.14072190508532	1.067106904289959	-6.531342118759384	0	0	48.50443276618884	8.213835658243001	9.604851640680453	-19.53575440237831	-2.972898985860412	3.453167187790949	0.06810118764025808	1.372926887238748	0	0	0	-9.416105638426377	0	88.6741778955349	1.372926887238748	0	0
